<?xml version="1.0" encoding="utf-8"?>
<!-- Generator: Adobe Illustrator 27.0.0, SVG Export Plug-In . SVG Version: 6.00 Build 0)  -->
<svg version="1.1" id="Layer_1" xmlns="http://www.w3.org/2000/svg" xmlns:xlink="http://www.w3.org/1999/xlink" x="0px" y="0px"
	 viewBox="0 0 512 512" style="enable-background:new 0 0 512 512;" xml:space="preserve">
<style type="text/css">
	.st0{fill:none;stroke:#000000;stroke-width:18;stroke-linecap:round;stroke-linejoin:round;stroke-miterlimit:10;}
	.st1{stroke:#000000;stroke-width:16;stroke-linecap:round;stroke-linejoin:round;stroke-miterlimit:10;}
	.st2{stroke:#000000;stroke-width:11;stroke-linecap:round;stroke-linejoin:round;stroke-miterlimit:10;}
</style>
<path class="st0" d="M90.7,412.9c8.2-84.1,79.1-160.3,165.3-160.3c86.8,0,158,77.3,165.3,162.2"/>
<rect x="70.4" y="436.6" class="st1" width="371.2" height="4.8"/>
<rect x="45" y="284" transform="matrix(0.5 -0.866 0.866 0.5 -258.4582 202.3371)" class="st2" width="2" height="82"/>
<rect x="461" y="284" transform="matrix(0.5 0.866 -0.866 0.5 512.4583 -237.6037)" class="st2" width="2" height="82"/>
<rect x="396" y="199" transform="matrix(0.766 0.6428 -0.6428 0.766 247.1494 -199.0374)" class="st2" width="2" height="82"/>
<rect x="114" y="199" transform="matrix(0.7071 -0.7071 0.7071 0.7071 -136.0229 151.6116)" class="st2" width="2" height="82"/>
<rect x="255" y="149" class="st2" width="2" height="82"/>
<rect x="284.5" y="137.5" transform="matrix(0.7071 -0.7071 0.7071 0.7071 -42.5975 254.1606)" class="st2" width="2" height="82"/>
<rect x="225.1" y="138.1" transform="matrix(0.7071 0.7071 -0.7071 0.7071 192.8813 -107.4333)" class="st2" width="2" height="82"/>
</svg>
